<svg xmlns="http://www.w3.org/2000/svg" viewBox="0 0 96 96" role="img" aria-labelledby="title desc">
  <title id="title">GxP Toolkit mark</title>
  <desc id="desc">A shield, check mark, and connected quality nodes for pharmaceutical compliance workflows.</desc>
  <defs>
    <linearGradient id="shield" x1="22" y1="12" x2="74" y2="84" gradientUnits="userSpaceOnUse">
      <stop stop-color="#167d83"/>
      <stop offset="1" stop-color="#315d9a"/>
    </linearGradient>
  </defs>
  <path fill="url(#shield)" d="M48 8 76 19.5v22.7c0 20.6-12.1 36.9-28 45.8-15.9-8.9-28-25.2-28-45.8V19.5L48 8Z"/>
  <path fill="#fff" d="m41.7 56.4 21-23.5a5.1 5.1 0 0 1 7.6 6.8L45.6 67.4a5.1 5.1 0 0 1-7.3.3L26.1 55.5a5.1 5.1 0 1 1 7.2-7.2l8.4 8.1Z"/>
  <path fill="none" stroke="#c9d9e4" stroke-linecap="round" stroke-width="4.2" d="M30 31.5h15.5L58.8 24M58.8 24h10.4M30 42h12.5"/>
  <circle cx="30" cy="31.5" r="4.6" fill="#e2f1ef"/>
  <circle cx="58.8" cy="24" r="4.6" fill="#e2f1ef"/>
  <circle cx="69.2" cy="24" r="3.5" fill="#e2f1ef"/>
</svg>
